<svg width="18" height="18" viewBox="0 0 18 18" fill="none" xmlns="http://www.w3.org/2000/svg">
<path fill-rule="evenodd" clip-rule="evenodd" d="M3.375 9C3.375 8.68934 3.62684 8.4375 3.9375 8.4375H11.5795L9.16475 6.02275C8.94508 5.80308 8.94508 5.44692 9.16475 5.22725C9.38442 5.00758 9.74058 5.00758 9.96025 5.22725L13.3352 8.60225C13.5549 8.82192 13.5549 9.17808 13.3352 9.39775L9.96025 12.7727C9.74058 12.9924 9.38442 12.9924 9.16475 12.7727C8.94508 12.5531 8.94508 12.1969 9.16475 11.9773L11.5795 9.5625H3.9375C3.62684 9.5625 3.375 9.31066 3.375 9Z" fill="black"/>
<path fill-rule="evenodd" clip-rule="evenodd" d="M14.0625 4.5C14.3732 4.5 14.625 4.75184 14.625 5.0625V12.9375C14.625 13.2482 14.3732 13.5 14.0625 13.5C13.7518 13.5 13.5 13.2482 13.5 12.9375V5.0625C13.5 4.75184 13.7518 4.5 14.0625 4.5Z" fill="black"/>
</svg>
