<svg xmlns="http://www.w3.org/2000/svg" height="24" width="24" fill="#ffffff" aria-labelledby="title-signup" viewBox="0 0 24 24">
  <title id="title-signup">Sign Up</title>
  <path d="M15.5 12q-1.875 0-3.188-1.312Q11 9.375 11 7.5q0-1.875 1.312-3.187Q13.625 3 15.5 3q1.875 0 3.188 1.313Q20 5.625 20 7.5q0 1.875-1.312 3.188Q17.375 12 15.5 12Zm-12 8v-2.025q0-.825.413-1.488.412-.662 1.137-1.037 1.4-.7 2.85-1.075Q9.35 14 10.8 14q.875 0 1.738.125.862.125 1.637.375-.825.75-1.3 1.787-.475 1.038-.475 2.213V20Zm12 0v-3H13v-2h2.5v-2.5h2V15H20v2h-2.5v3Z"/>
</svg>
